<svg width="36" height="36" viewBox="0 0 36 36" fill="none" xmlns="http://www.w3.org/2000/svg">
<circle cx="18" cy="18" r="18" fill="#EFF6FF"/>
<path d="M23 8V10M18 8V10M13 8V10M14 21H18M14 16H22M9.5 16C9.5 12.7 9.5 11.05 10.525 10.025C11.55 9 13.2 9 16.5 9H19.5C22.8 9 24.45 9 25.475 10.025C26.5 11.05 26.5 12.7 26.5 16V21C26.5 24.3 26.5 25.95 25.475 26.975C24.45 28 22.8 28 19.5 28H16.5C13.2 28 11.55 28 10.525 26.975C9.5 25.95 9.5 24.3 9.5 21V16Z" stroke="#94A3B8" stroke-width="1.5" stroke-linecap="round" stroke-linejoin="round"/>
</svg>
