<svg width="64" height="64" viewBox="0 0 64 64" fill="none" xmlns="http://www.w3.org/2000/svg">
<rect width="64" height="64" rx="12" fill="#E2E8F0"/>
<path fill-rule="evenodd" clip-rule="evenodd" d="M33.4569 50.4855C42.4322 50.4855 49.7081 43.2096 49.7081 34.2343C49.7081 25.2591 42.4322 17.9832 33.4569 17.9832C27.2733 17.9832 21.8962 21.4368 19.1496 26.5205C18.9194 26.8532 18.6625 27.3165 18.38 27.826C17.5978 29.2369 16.6189 31.0024 15.4643 31.3323C14.3036 31.664 13.58 32.1533 14.1603 33.8945C14.6904 35.485 19.1528 46.7413 27.844 49.4902C29.5934 50.134 31.4841 50.4855 33.4569 50.4855Z" fill="#F5C2D0"/>
<path fill-rule="evenodd" clip-rule="evenodd" d="M22.6785 22.0903C26.5157 22.6461 33.3984 24.1292 38.8279 30.4119C44.1382 36.5567 44.3442 39.9959 44.6461 45.0385C44.6646 45.3474 44.6835 45.6624 44.7039 45.9844C47.795 43.0259 49.72 38.859 49.72 34.2424C49.72 25.2671 42.4441 17.9912 33.4688 17.9912C29.3277 17.9912 25.5483 19.5401 22.6785 22.0903Z" fill="#1E293B"/>
<ellipse cx="24.0272" cy="30.4121" rx="1.1608" ry="1.7412" transform="rotate(-0.774191 24.0272 30.4121)" fill="#334155"/>
<circle cx="42.6004" cy="35.0552" r="4.0628" fill="#F5C2D0"/>
</svg>
