<svg width="64" height="64" viewBox="0 0 64 64" fill="none" xmlns="http://www.w3.org/2000/svg">
<path d="M35.694 7.99672L24.8864 18.7297L43.4301 26.2218L35.694 7.99672Z" fill="#F4900C"/>
<path d="M48.6747 13.2413L48.9933 28.4695L30.4496 20.9774L48.6747 13.2413Z" fill="#F4900C"/>
<rect x="23.21" y="20.2095" width="28" height="2" transform="rotate(22 23.21 20.2095)" fill="#FFCC24"/>
<rect x="23.032" y="17.9805" width="30" height="2" rx="1" transform="rotate(22 23.032 17.9805)" fill="#FFAC33"/>
<rect x="21.5337" y="21.6892" width="30" height="2" rx="1" transform="rotate(22 21.5337 21.6892)" fill="#FFAC33"/>
<path d="M42.9335 8.76462L46.2116 27.3456L27.6679 19.8535L42.9335 8.76462Z" fill="#FFCC24"/>
<path d="M55.1648 15.8635L49.9203 28.844L31.3766 21.3519L55.1648 15.8635Z" fill="#FFCC24"/>
<path d="M29.2036 5.37457L23.9591 18.3551L42.5028 25.8473L29.2036 5.37457Z" fill="#FFCC24"/>
<circle cx="54.7902" cy="16.7906" r="2" transform="rotate(22 54.7902 16.7906)" fill="#FFCC24"/>
<circle cx="28.829" cy="6.30158" r="2" transform="rotate(22 28.829 6.30158)" fill="#FFCC24"/>
<circle cx="35.3193" cy="8.92389" r="2" transform="rotate(22 35.3193 8.92389)" fill="#F4900C"/>
<circle cx="48.3" cy="14.1685" r="2" transform="rotate(22 48.3 14.1685)" fill="#F4900C"/>
<rect x="38.0449" y="26.2031" width="12" height="2" transform="rotate(22 38.0449 26.2031)" fill="url(#paint0_linear_833_34550)"/>
<path d="M42.9336 8.76465L44.6232 18.3416L41.7187 25.5304L36.9399 23.5996L42.9336 8.76465Z" fill="#FFAE44"/>
<circle cx="42.5588" cy="9.69172" r="2" transform="rotate(22 42.5588 9.69172)" fill="#FFCC24"/>
<path d="M40.6858 14.3278L43.458 18.1442L41.585 22.7801L36.9397 23.5996L34.1675 19.7832L36.0405 15.1473L40.6858 14.3278Z" fill="#FFCC24"/>
<path d="M40.3111 15.2549L42.3434 18.2331L40.845 21.9418L37.3142 22.6724L35.2819 19.6942L36.7803 15.9855L40.3111 15.2549Z" fill="#C20E2F"/>
<path d="M39.9366 16.1821L41.2291 18.3221L40.1053 21.1036L37.689 21.7452L36.3965 19.6052L37.5204 16.8236L39.9366 16.1821Z" fill="#FF284F"/>
<path d="M39.9366 16.1821L39.3747 17.5729L38.2509 20.3544L37.689 21.7452L36.3965 19.6052L37.5204 16.8236L39.9366 16.1821Z" fill="#FF6B86"/>
<path d="M38.3351 17.4764L39.5619 17.1092L40.1894 18.2256" stroke="#FFD5DD" stroke-width="0.5" stroke-linecap="round"/>
<path d="M49.2084 19.9282L51.4262 22.9813L49.9278 26.6901L46.2116 27.3457L43.9938 24.2926L45.4922 20.5839L49.2084 19.9282Z" fill="#FFCC24"/>
<path d="M48.9088 20.6701L50.5347 23.0526L49.336 26.0196L46.5114 26.604L44.8855 24.2215L46.0842 21.2545L48.9088 20.6701Z" fill="#710CB5"/>
<path d="M48.609 21.4116L49.6429 23.1236L48.7439 25.3489L46.8109 25.8621L45.7769 24.1501L46.676 21.9249L48.609 21.4116Z" fill="#981CEB"/>
<path d="M48.609 21.4116L48.1595 22.5242L47.2604 24.7495L46.8109 25.8621L45.7769 24.1501L46.676 21.9249L48.609 21.4116Z" fill="#C063FF"/>
<path d="M47.3279 22.4472L48.3094 22.1534L48.8114 23.0465" stroke="#E5BFFF" stroke-width="0.4" stroke-linecap="round"/>
<path d="M30.8503 12.511L33.0681 15.5641L31.5696 19.2728L27.8534 19.9285L25.6357 16.8754L27.1341 13.1666L30.8503 12.511Z" fill="#FFCC24"/>
<path d="M30.5507 13.2528L32.1766 15.6354L30.9778 18.6024L28.1532 19.1868L26.5273 16.8042L27.7261 13.8373L30.5507 13.2528Z" fill="#710CB5"/>
<path d="M30.2508 13.9944L31.2848 15.7064L30.3857 17.9316L28.4527 18.4449L27.4188 16.7329L28.3178 14.5076L30.2508 13.9944Z" fill="#981CEB"/>
<path d="M30.2508 13.9944L29.8013 15.107L28.9022 17.3323L28.4527 18.4449L27.4188 16.7329L28.3178 14.5076L30.2508 13.9944Z" fill="#C063FF"/>
<path d="M28.9697 15.0299L29.9512 14.7362L30.4532 15.6293" stroke="#E5BFFF" stroke-width="0.4" stroke-linecap="round"/>
<path d="M54 44L55.8906 49.1094L61 51L55.8906 52.8906L54 58L52.1094 52.8906L47 51L52.1094 49.1094L54 44Z" fill="white"/>
<path d="M14 8L15.3505 11.6495L19 13L15.3505 14.3505L14 18L12.6495 14.3505L9 13L12.6495 11.6495L14 8Z" fill="white"/>
<path d="M57 28L57.8103 30.1897L60 31L57.8103 31.8103L57 34L56.1897 31.8103L54 31L56.1897 30.1897L57 28Z" fill="white"/>
<defs>
<linearGradient id="paint0_linear_833_34550" x1="38.0449" y1="27.2031" x2="50.0449" y2="27.2031" gradientUnits="userSpaceOnUse">
<stop stop-color="#FFCC24"/>
<stop offset="1" stop-color="#FFAE44"/>
</linearGradient>
</defs>
</svg>
