<svg width="64" height="64" viewBox="0 0 64 64" fill="none" xmlns="http://www.w3.org/2000/svg">
<rect width="64" height="64" rx="12" fill="#EFF6FF"/>
<path fill-rule="evenodd" clip-rule="evenodd" d="M33.4569 50.4855C42.4322 50.4855 49.7081 43.2096 49.7081 34.2343C49.7081 25.2591 42.4322 17.9832 33.4569 17.9832C27.2733 17.9832 21.8962 21.4368 19.1496 26.5205C18.9194 26.8532 18.6625 27.3165 18.38 27.826C17.5978 29.2369 16.6189 31.0024 15.4643 31.3323C14.3036 31.664 13.58 32.1533 14.1603 33.8945C14.6904 35.485 19.1528 46.7413 27.844 49.4902C29.5934 50.134 31.4841 50.4855 33.4569 50.4855Z" fill="#F5C2D0"/>
<path fill-rule="evenodd" clip-rule="evenodd" d="M22.6787 22.0903C26.516 22.6462 33.3985 24.1294 38.8279 30.4119C44.1382 36.5567 44.3441 39.9959 44.6461 45.0385C44.6646 45.3476 44.6834 45.6626 44.7039 45.9847C47.795 43.0263 49.7201 38.8593 49.7201 34.2426C49.7201 25.2674 42.4442 17.9915 33.4689 17.9915C29.3278 17.9915 25.5485 19.5403 22.6787 22.0903Z" fill="#1E293B"/>
<path d="M49.6447 31.5728L13.4227 19.5035C12.951 19.3164 12.3557 18.0312 14.8376 17.5388C16.2524 17.2582 20.4973 18.0066 21.9122 18.9422C24.5534 15.7611 32.1563 10.4095 41.4382 14.4513C50.7201 18.4931 50.7767 27.5497 49.6447 31.5728Z" fill="#000000"/>
<ellipse cx="24.0272" cy="30.4121" rx="1.1608" ry="1.7412" transform="rotate(-0.774191 24.0272 30.4121)" fill="#334155"/>
<circle cx="42.6004" cy="35.0552" r="4.0628" fill="#F5C2D0"/>
</svg>
