<svg width="64" height="64" viewBox="0 0 64 64" fill="none" xmlns="http://www.w3.org/2000/svg">
<ellipse cx="24.0272" cy="30.4119" rx="1.1608" ry="1.7412" transform="rotate(-0.774191 24.0272 30.4119)" fill="#334155"/>
<path d="M30.4156 29.0041C30.097 32.0351 27.3817 34.2339 24.3507 33.9153C21.3197 33.5968 19.1209 30.8814 19.4394 27.8504C19.4394 27.8504 21.8965 28.1086 24.9275 28.4272C27.9585 28.7457 30.4156 29.0041 30.4156 29.0041Z" fill="#1E293B"/>
<path d="M27 30L26 31" stroke="white" stroke-linecap="round"/>
<circle cx="28.5" cy="30.5" r="0.5" fill="white"/>
<path d="M19 28L39.3877 30.1428" stroke="#1E293B" stroke-linecap="round"/>
<path d="M12 22L12.8103 24.1897L15 25L12.8103 25.8103L12 28L11.1897 25.8103L9 25L11.1897 24.1897L12 22Z" fill="white"/>
<path d="M12 43L13.8906 48.1094L19 50L13.8906 51.8906L12 57L10.1094 51.8906L5 50L10.1094 48.1094L12 43Z" fill="white"/>
<path d="M50 4L51.8906 9.10936L57 11L51.8906 12.8906L50 18L48.1094 12.8906L43 11L48.1094 9.10936L50 4Z" fill="white"/>
<path d="M32.5 31L33.1752 32.8248L35 33.5L33.1752 34.1752L32.5 36L31.8248 34.1752L30 33.5L31.8248 32.8248L32.5 31Z" fill="white"/>
</svg>
