<svg width="24" height="24" viewBox="0 0 24 24" fill="none" xmlns="http://www.w3.org/2000/svg">
<rect width="24" height="24" rx="12" fill="white"/>
<rect x="5" y="11.25" width="15" height="1.5" rx="0.75" fill="#0F172A"/>
<path d="M4.71967 12.53C4.42678 12.2371 4.42678 11.7622 4.71967 11.4693L10.7301 5.45893C11.023 5.16603 11.4978 5.16603 11.7907 5.45893C12.0836 5.75182 12.0836 6.22669 11.7907 6.51959L5.78033 12.53C5.48744 12.8229 5.01256 12.8229 4.71967 12.53Z" fill="#0F172A"/>
<path d="M4.71967 11.4693C5.01256 11.1764 5.48732 11.1766 5.78022 11.4694L11.7906 17.4799C12.0835 17.7727 12.0835 18.2476 11.7906 18.5405C11.4977 18.8334 11.0229 18.8334 10.73 18.5405L4.71967 12.53C4.42678 12.2371 4.42678 11.7622 4.71967 11.4693Z" fill="#0F172A"/>
</svg>
