<svg width="214" height="190" viewBox="0 0 214 190" fill="none" xmlns="http://www.w3.org/2000/svg">
<path d="M199.331 138.4L200.077 138.94C213.308 118.808 228.715 68.9467 184.502 30.5558C140.288 -7.8351 89.0375 8.31454 68.9389 21.1882C62.7534 13.5808 40.6241 2.06745 32.3283 1.14298C17.7755 -0.478774 18.8306 7.62082 21.1089 9.47127L64.8035 41.0806C55.9078 45.3947 47.7022 51.099 40.5392 58.0114C38.6909 59.4382 36.4692 61.5359 34.0258 63.8429C27.2594 70.2315 18.7926 78.2255 11.8474 78.0254C4.8652 77.8243 0.0223282 79.2512 0.203149 89.8302C0.368312 99.4932 5.45946 169.122 48.6569 199.379C57.1946 205.967 67.0196 211.195 77.9079 214.634C101.994 222.243 126.848 219.7 147.82 209.409L147.795 209.511C169.991 198.645 187.848 179.105 195.861 153.739C197.469 148.647 198.618 143.519 199.331 138.4Z" fill="white" fill-opacity="0.2"/>
</svg>
