<svg width="24" height="24" viewBox="0 0 24 24" fill="none" xmlns="http://www.w3.org/2000/svg">
<rect width="24" height="24" rx="6" fill="currentColor"/>
<path d="M15.0209 9.55422H14.5454C14.0709 9.58097 13.6642 9.21872 13.6362 8.74431V8.70251C13.6227 8.47369 13.5187 8.25965 13.3471 8.10768C13.1756 7.9557 12.9505 7.87831 12.7218 7.8926H9.45078V7.72539C9.45078 7.50895 9.27532 7.3335 9.05888 7.3335C8.84245 7.3335 8.66699 7.50895 8.66699 7.72539V16.6083C8.66699 16.8247 8.84245 17.0002 9.05888 17.0002C9.27532 17.0002 9.45078 16.8247 9.45078 16.6083V12.2818H10.0621C10.5366 12.255 10.9433 12.6173 10.9713 13.0917V13.123C10.9994 13.5975 11.406 13.9597 11.8805 13.933H15.0156C15.4901 13.9597 15.8968 13.5975 15.9248 13.123V10.3537C15.8886 9.8869 15.4886 9.53307 15.0209 9.55422Z" fill="white"/>
</svg>
