<svg width="24" height="24" viewBox="0 0 24 24" fill="none" xmlns="http://www.w3.org/2000/svg">
<circle cx="14" cy="8" r="3" fill="#878B94"/>
<path d="M7 18.3636C7 14.8491 9.8491 12 13.3636 12H14.6364C18.1509 12 21 14.8491 21 18.3636C21 18.7151 20.7151 19 20.3636 19H7.63636C7.28491 19 7 18.7151 7 18.3636Z" fill="#878B94"/>
<circle cx="10" cy="9" r="3" fill="#0F172A"/>
<path d="M3 19.3636C3 15.8491 5.8491 13 9.36364 13H10.6364C14.1509 13 17 15.8491 17 19.3636C17 19.7151 16.7151 20 16.3636 20H3.63636C3.28491 20 3 19.7151 3 19.3636Z" fill="#0F172A"/>
</svg>
