<svg width="40" height="40" viewBox="0 0 40 40" fill="none" xmlns="http://www.w3.org/2000/svg">
<rect width="40" height="40" rx="15" fill="#0F172A"/>
<circle cx="23" cy="12.5" r="4.5" fill="#9FA2AA"/>
<path d="M12.5 28.0455C12.5 22.7736 16.7736 18.5 22.0455 18.5H23.9545C29.2264 18.5 33.5 22.7736 33.5 28.0455C33.5 28.5726 33.0726 29 32.5455 29H13.4545C12.9274 29 12.5 28.5726 12.5 28.0455Z" fill="#9FA2AA"/>
<circle cx="17" cy="15.5" r="4.5" fill="white"/>
<path d="M6.5 31.0455C6.5 25.7736 10.7736 21.5 16.0455 21.5H17.9545C23.2264 21.5 27.5 25.7736 27.5 31.0455C27.5 31.5726 27.0726 32 26.5455 32H7.45455C6.92736 32 6.5 31.5726 6.5 31.0455Z" fill="white"/>
</svg>
