<svg width="24" height="24" viewBox="0 0 24 24" fill="none" xmlns="http://www.w3.org/2000/svg">
<path fill-rule="evenodd" clip-rule="evenodd" d="M13.2812 6.58073L16.8978 9.25209C17.5948 9.75651 18.0095 10.563 18.0143 11.4234V16.2593C17.9695 17.8099 16.6815 19.0337 15.1306 18.9991H7.89055C6.337 19.0375 5.04479 17.8126 5 16.2593V11.4234C5.00477 10.563 5.41949 9.75651 6.11649 9.25209L9.7331 6.58073C10.7891 5.80642 12.2252 5.80642 13.2812 6.58073ZM10.0611 11.0611C9.2625 11.0611 8.61509 11.7085 8.61509 12.5071V14.6762C8.61509 15.4748 9.2625 16.1222 10.0611 16.1222H12.9532C13.7518 16.1222 14.3992 15.4748 14.3992 14.6762V12.5071C14.3992 11.7085 13.7518 11.0611 12.9532 11.0611H10.0611Z" fill="#1E293B"/>
<path d="M8.61523 13.5918H15.1224" stroke="#1E293B" stroke-width="1.30143" stroke-linecap="round"/>
<path d="M11.5068 9.97656L11.5068 17.2067" stroke="#1E293B" stroke-width="1.30143" stroke-linecap="round"/>
</svg>
