<svg width="106" height="35" viewBox="0 0 106 35" fill="none" xmlns="http://www.w3.org/2000/svg">
<path d="M36.0857 13.426H31.992C31.6174 13.426 31.2829 13.5599 30.9886 13.8278C30.6943 14.0957 30.5271 14.4171 30.487 14.7921C30.4334 15.1805 30.5204 15.5086 30.7478 15.7765C30.9753 16.031 31.2763 16.1582 31.6508 16.1582H31.7913C32.3532 16.1582 32.8682 16.2654 33.3365 16.4796C33.8047 16.6939 34.1994 16.9886 34.5204 17.3636C34.8549 17.7252 35.0957 18.1538 35.2428 18.6494C35.4034 19.1449 35.4502 19.6739 35.3833 20.2364C35.3164 20.799 35.1425 21.3347 34.8616 21.8436C34.594 22.3392 34.2529 22.7745 33.8381 23.1495C33.4234 23.5111 32.9552 23.799 32.4335 24.0133C31.9117 24.2276 31.3699 24.3348 30.808 24.3348H26.7144L27.0354 21.6026H31.1291C31.5037 21.6026 31.8381 21.4753 32.1325 21.2209C32.4401 20.953 32.6207 20.6249 32.6743 20.2364C32.7144 19.8614 32.6141 19.5467 32.3733 19.2922C32.1458 19.0244 31.8448 18.8904 31.4702 18.8904H31.3298C30.7679 18.8904 30.2528 18.7833 29.7846 18.569C29.3164 18.3547 28.9217 18.0667 28.6007 17.7051C28.2796 17.3301 28.0388 16.8948 27.8782 16.3993C27.7311 15.8903 27.691 15.3546 27.7578 14.7921C27.8247 14.2296 27.992 13.7006 28.2595 13.205C28.5405 12.7095 28.8883 12.2809 29.303 11.9193C29.7177 11.5442 30.1859 11.2496 30.7077 11.0353C31.2294 10.821 31.7712 10.7139 32.3331 10.7139H36.4268L36.0857 13.426Z" fill="#1F2937"/>
<path d="M40.4203 10.7139L38.7547 24.3348H36.0256L37.6912 10.7139H40.4203Z" fill="#1F2937"/>
<path d="M44.1734 14.3501L42.9494 24.3348H40.2403L41.4644 14.3501H44.1734ZM44.6149 10.734L44.2738 13.4461H41.5647L41.9059 10.734H44.6149Z" fill="#1F2937"/>
<path d="M54.4068 10.7139L52.7413 24.3348H46.9419C46.5673 24.3348 46.2195 24.2678 45.8984 24.1339C45.5907 23.9866 45.3299 23.7923 45.1158 23.5513C44.9018 23.2968 44.7412 23.0088 44.6342 22.6874C44.5406 22.3526 44.5138 21.9977 44.5539 21.6226L44.9954 17.9864C45.0623 17.4908 45.2161 17.0221 45.4569 16.5801C45.6978 16.1381 45.9988 15.7497 46.36 15.4149C46.7346 15.0801 47.1493 14.8189 47.6041 14.6314C48.0724 14.4439 48.5606 14.3501 49.069 14.3501H51.2563L51.6978 10.7139H54.4068ZM50.3533 21.6226L50.9152 17.0823H48.7279C48.4737 17.0823 48.2463 17.1694 48.0456 17.3435C47.8449 17.5176 47.7312 17.7319 47.7045 17.9864L47.3834 20.6985L47.263 21.6226H50.3533Z" fill="#1F2937"/>
<path d="M65.3177 21.6226L64.9966 24.3348H63.7123C63.2173 24.3348 62.7625 24.241 62.3477 24.0535C61.933 23.866 61.5785 23.6048 61.2842 23.27C60.9899 22.9352 60.7758 22.5535 60.642 22.1249C60.5083 21.6829 60.4748 21.2075 60.5417 20.6985L60.9832 17.0823H60.3611L60.7022 14.3501H61.3243L61.4247 13.4461L61.7658 10.7139H64.4748L64.1337 13.4461L64.0334 14.3501H66.2207L65.8795 17.0823H63.6922L63.2507 20.6985C63.224 20.953 63.2842 21.174 63.4314 21.3615C63.5919 21.5356 63.7926 21.6226 64.0334 21.6226H65.3177Z" fill="#3B82F6"/>
<path d="M75.4741 17.9864L75.153 20.7186C75.0861 21.2142 74.9323 21.6829 74.6915 22.1249C74.4507 22.5669 74.143 22.9553 73.7684 23.2901C73.4072 23.6115 72.9925 23.866 72.5242 24.0535C72.0694 24.241 71.5944 24.3348 71.0995 24.3348H69.5744C69.0794 24.3348 68.6245 24.241 68.2098 24.0535C67.7951 23.866 67.4406 23.6115 67.1463 23.2901C66.8519 22.9553 66.6379 22.5669 66.5041 22.1249C66.3703 21.6829 66.3369 21.2142 66.4038 20.7186L66.7249 17.9864C66.7917 17.4908 66.9456 17.0221 67.1864 16.5801C67.4272 16.1381 67.7282 15.7564 68.0894 15.435C68.464 15.1001 68.8787 14.839 69.3336 14.6515C69.8018 14.464 70.2834 14.3702 70.7784 14.3702H72.3035C72.7985 14.3702 73.2533 14.464 73.668 14.6515C74.0961 14.839 74.4507 15.1001 74.7316 15.435C75.0259 15.7564 75.24 16.1381 75.3737 16.5801C75.5075 17.0221 75.541 17.4908 75.4741 17.9864ZM72.444 20.7186L72.765 17.9864C72.7918 17.7319 72.7249 17.5176 72.5644 17.3435C72.4172 17.1694 72.2232 17.0823 71.9824 17.0823H70.4573C70.2031 17.0823 69.9757 17.1694 69.775 17.3435C69.5744 17.5176 69.4607 17.7319 69.4339 17.9864L69.1128 20.7186C69.0861 20.9731 69.1463 21.1874 69.2934 21.3615C69.4406 21.5356 69.6413 21.6226 69.8954 21.6226H71.4205C71.6613 21.6226 71.8821 21.5356 72.0827 21.3615C72.2968 21.1874 72.4172 20.9731 72.444 20.7186Z" fill="#3B82F6"/>
<path d="M75.5871 19.7744L75.9483 18.1471H80.6841L80.3229 19.7744H77.955H75.5871Z" fill="#3B82F6"/>
<path d="M92.0717 10.7139L90.4061 24.3348H84.6068C84.2322 24.3348 83.8843 24.2678 83.5633 24.1339C83.2556 23.9866 82.9947 23.7923 82.7807 23.5513C82.5666 23.2968 82.4061 23.0088 82.2991 22.6874C82.2054 22.3526 82.1786 21.9977 82.2188 21.6226L82.6603 17.9864C82.7271 17.4908 82.881 17.0221 83.1218 16.5801C83.3626 16.1381 83.6636 15.7497 84.0248 15.4149C84.3994 15.0801 84.8141 14.8189 85.269 14.6314C85.7372 14.4439 86.2255 14.3501 86.7339 14.3501H88.9212L89.3626 10.7139H92.0717ZM88.0182 21.6226L88.58 17.0823H86.3927C86.1385 17.0823 85.9111 17.1694 85.7104 17.3435C85.5098 17.5176 85.3961 17.7319 85.3693 17.9864L85.0482 20.6985L84.9278 21.6226H88.0182Z" fill="#3B82F6"/>
<path d="M100.871 17.9864L100.55 20.7186C100.483 21.2142 100.33 21.6829 100.089 22.1249C99.848 22.5669 99.5403 22.9553 99.1657 23.2901C98.8045 23.6115 98.3898 23.866 97.9215 24.0535C97.4667 24.241 96.9918 24.3348 96.4968 24.3348H94.9717C94.4767 24.3348 94.0218 24.241 93.6071 24.0535C93.1924 23.866 92.8379 23.6115 92.5436 23.2901C92.2493 22.9553 92.0352 22.5669 91.9014 22.1249C91.7677 21.6829 91.7342 21.2142 91.8011 20.7186L92.1222 17.9864C92.1891 17.4908 92.3429 17.0221 92.5837 16.5801C92.8245 16.1381 93.1255 15.7564 93.4867 15.435C93.8613 15.1001 94.276 14.839 94.7309 14.6515C95.1991 14.464 95.6807 14.3702 96.1757 14.3702H97.7008C98.1958 14.3702 98.6506 14.464 99.0654 14.6515C99.4935 14.839 99.848 15.1001 100.129 15.435C100.423 15.7564 100.637 16.1381 100.771 16.5801C100.905 17.0221 100.938 17.4908 100.871 17.9864ZM97.8413 20.7186L98.1623 17.9864C98.1891 17.7319 98.1222 17.5176 97.9617 17.3435C97.8145 17.1694 97.6205 17.0823 97.3797 17.0823H95.8546C95.6005 17.0823 95.373 17.1694 95.1724 17.3435C94.9717 17.5176 94.858 17.7319 94.8312 17.9864L94.5101 20.7186C94.4834 20.9731 94.5436 21.1874 94.6907 21.3615C94.8379 21.5356 95.0386 21.6226 95.2928 21.6226H96.8178C97.0587 21.6226 97.2794 21.5356 97.4801 21.3615C97.6941 21.1874 97.8145 20.9731 97.8413 20.7186Z" fill="#3B82F6"/>
<rect x="17.3247" y="10.0547" width="3.59459" height="15.4054" rx="1.54054" fill="#1D4ED8"/>
<path d="M5 12.7288C5 11.7661 5.66866 10.9325 6.60847 10.7236L16.3652 8.55548C17.648 8.27041 18.8649 9.24654 18.8649 10.5606V24.5306C18.8649 25.8149 17.6996 26.7842 16.4368 26.5504L6.68003 24.7435C5.70641 24.5632 5 23.714 5 22.7238V12.7288Z" fill="#3B82F6"/>
<path d="M9.1084 16.9868L10.6489 18.784L13.73 15.1895" stroke="#F8FAFC" stroke-width="1.23243" stroke-linecap="round" stroke-linejoin="round"/>
</svg>
