<svg width="80" height="80" viewBox="0 0 80 80" fill="none" xmlns="http://www.w3.org/2000/svg">
<rect width="80" height="80" rx="12" fill="url(#paint0_linear_1635_14201)"/>
<path d="M63 30C66.866 30 70 26.866 70 23C70 19.134 66.866 16 63 16C59.134 16 56 19.134 56 23C56 26.866 59.134 30 63 30Z" fill="white"/>
<path d="M55.9015 40.0645L33.7604 61.9308C30.9625 64.694 26.4321 64.6855 23.6428 61.9308L13.092 51.5024C10.3027 48.7392 10.3027 44.2735 13.092 41.5103C15.8899 38.7471 20.4117 38.7471 23.2096 41.5103L28.7103 46.9426L45.7839 30.0724C48.5731 27.3092 53.1036 27.3092 55.9015 30.0724C58.6995 32.8356 58.6995 37.3013 55.9015 40.0645Z" fill="white"/>
<defs>
<linearGradient id="paint0_linear_1635_14201" x1="2.63901" y1="2.24134e-06" x2="77.361" y2="80" gradientUnits="userSpaceOnUse">
<stop offset="0.45" stop-color="#3B82F6"/>
<stop offset="1" stop-color="#FF700A"/>
</linearGradient>
</defs>
</svg>
