<svg width="28" height="28" viewBox="0 0 28 28" fill="none" xmlns="http://www.w3.org/2000/svg">
<rect width="28" height="28" rx="8.4" fill="#DBEAFE"/>
<path d="M6.92163 16.7177L13.8366 13.8061C13.9411 13.7621 14.0589 13.7621 14.1634 13.8061L21.0784 16.7177C21.4219 16.8623 21.4219 17.3491 21.0784 17.4938L14.1634 20.4054C14.0589 20.4493 13.9411 20.4493 13.8366 20.4054L6.92164 17.4938C6.57809 17.3491 6.57809 16.8623 6.92163 16.7177Z" fill="white" fill-opacity="0.8"/>
<path d="M6.92163 13.3485L13.8366 10.437C13.9411 10.393 14.0589 10.393 14.1634 10.437L21.0784 13.3485C21.4219 13.4932 21.4219 13.98 21.0784 14.1246L14.1634 17.0362C14.0589 17.0802 13.9411 17.0802 13.8366 17.0362L6.92164 14.1246C6.57809 13.98 6.57809 13.4932 6.92163 13.3485Z" fill="#93C5FD"/>
<path d="M6.92163 9.98036L13.8366 7.0688C13.9411 7.0248 14.0589 7.0248 14.1634 7.0688L21.0784 9.98036C21.4219 10.125 21.4219 10.6118 21.0784 10.7565L14.1634 13.668C14.0589 13.712 13.9411 13.712 13.8366 13.668L6.92164 10.7565C6.57809 10.6118 6.57809 10.125 6.92163 9.98036Z" fill="#60A5FA"/>
</svg>
