<svg width="25" height="24" viewBox="0 0 25 24" fill="none" xmlns="http://www.w3.org/2000/svg">
<path fill-rule="evenodd" clip-rule="evenodd" d="M18.5 15.5C18.5 16.8807 17.3807 18 16 18C14.6193 18 13.5 16.8807 13.5 15.5C13.5 14.1193 14.6193 13 16 13C17.3807 13 18.5 14.1193 18.5 15.5ZM18.3957 19.31C17.702 19.7471 16.8805 20 16 20C13.5147 20 11.5 17.9853 11.5 15.5C11.5 13.0147 13.5147 11 16 11C18.4853 11 20.5 13.0147 20.5 15.5C20.5 16.3806 20.2471 17.2021 19.8099 17.8958L22.4497 20.5356C22.8403 20.9262 22.8403 21.5593 22.4497 21.9498C22.0592 22.3404 21.4261 22.3404 21.0355 21.9498L18.3957 19.31Z" fill="#3B82F6"/>
<circle cx="10.5" cy="7" r="4" fill="#3B82F6"/>
<path fill-rule="evenodd" clip-rule="evenodd" d="M10.5218 12H9.61111C5.68375 12 2.5 15.1838 2.5 19.1111C2.5 19.602 2.89797 20 3.38889 20H11.3096C10.1888 18.8321 9.5 17.2465 9.5 15.5C9.5 14.2114 9.875 13.0103 10.5218 12Z" fill="#3B82F6"/>
</svg>
