<svg width="200" height="50" viewBox="0 0 200 50" fill="none" xmlns="http://www.w3.org/2000/svg">
<path fill-rule="evenodd" clip-rule="evenodd" d="M173.963 41.3527H161.777C158.611 41.3527 156.27 40.623 154.755 39.1635C153.241 37.7315 152.484 35.5148 152.484 32.5132V26.5651C152.484 23.5636 153.241 21.3468 154.755 19.9148C156.27 18.4554 158.611 17.7256 161.777 17.7256H167.767V7.02734H173.963V41.3527ZM167.767 35.9829V23.0954H162.149C160.993 23.0954 160.125 23.3708 159.547 23.9215C158.969 24.4723 158.68 25.4361 158.68 26.813V32.2654C158.68 33.6422 158.969 34.606 159.547 35.1568C160.125 35.7075 160.993 35.9829 162.149 35.9829H167.767ZM200 32.6777C200 35.6793 199.243 37.8961 197.728 39.328C196.214 40.7875 193.873 41.5172 190.706 41.5172H186.576C183.409 41.5172 181.068 40.7875 179.554 39.328C178.039 37.8961 177.282 35.6793 177.282 32.6777V26.3992C177.282 23.3976 178.039 21.1809 179.554 19.7489C181.068 18.2894 183.409 17.5597 186.576 17.5597H190.706C193.873 17.5597 196.214 18.2894 197.728 19.7489C199.243 21.1809 200 23.3976 200 26.3992V32.6777ZM190.335 36.1474C191.491 36.1474 192.359 35.8721 192.937 35.3213C193.515 34.7706 193.804 33.8068 193.804 32.4299V26.647C193.804 25.2702 193.515 24.3064 192.937 23.7556C192.359 23.2049 191.491 22.9295 190.335 22.9295H186.948C185.791 22.9295 184.924 23.2049 184.345 23.7556C183.767 24.3064 183.478 25.2702 183.478 26.647V32.4299C183.478 33.8068 183.767 34.7706 184.345 35.3213C184.924 35.8721 185.791 36.1474 186.948 36.1474H190.335ZM135.001 30.2202H149.902V25.7591H135.001V30.2202ZM132.817 32.6777C132.817 35.6793 132.06 37.8961 130.545 39.328C129.031 40.7875 126.69 41.5172 123.523 41.5172H119.393C116.226 41.5172 113.885 40.7875 112.371 39.328C110.856 37.8961 110.099 35.6793 110.099 32.6777V26.3992C110.099 23.3976 110.856 21.1809 112.371 19.7489C113.885 18.2894 116.226 17.5597 119.393 17.5597H123.523C126.69 17.5597 129.031 18.2894 130.545 19.7489C132.06 21.1809 132.817 23.3976 132.817 26.3992V32.6777ZM123.152 36.1474C124.308 36.1474 125.176 35.8721 125.754 35.3213C126.332 34.7706 126.621 33.8068 126.621 32.4299V26.647C126.621 25.2702 126.332 24.3064 125.754 23.7556C125.176 23.2049 124.308 22.9295 123.152 22.9295H119.764C118.608 22.9295 117.74 23.2049 117.162 23.7556C116.584 24.3064 116.295 25.2702 116.295 26.647V32.4299C116.295 33.8068 116.584 34.7706 117.162 35.3213C117.74 35.8721 118.608 36.1474 119.764 36.1474H123.152ZM105.155 41.3536H108.46V35.9838H105.527C104.37 35.9838 103.503 35.7085 102.925 35.1577C102.346 34.607 102.057 33.6431 102.057 32.2663V23.0963H108.46V17.7265H102.057V7.0594H95.8614V17.7265H92.8457V23.0963H95.8614V32.5141C95.8614 35.5157 96.6187 37.7324 98.1332 39.1644C99.6478 40.6239 101.988 41.3536 105.155 41.3536Z" fill="url(#paint0_linear_1899_14224)"/>
<path fill-rule="evenodd" clip-rule="evenodd" d="M80.6395 39.6654C82.154 38.2335 82.9113 36.0167 82.9113 33.0152V18.0619H76.0958V32.1477C76.0958 33.5246 75.8066 34.4884 75.2284 35.0392C74.6501 35.5899 73.7826 35.8653 72.6261 35.8653H67.752V41.8547H73.6174C76.7842 41.8547 79.1249 41.1249 80.6395 39.6654ZM76.0958 14.1542H82.9113V7.5293H76.0958V14.1542Z" fill="#3B82F6"/>
<path d="M43.6975 3.99609H10.0825C6.75638 3.99609 4.06006 6.69242 4.06006 10.0185V43.6336C4.06006 46.9597 6.75638 49.656 10.0825 49.656H43.6975C47.0236 49.656 49.7199 46.9597 49.7199 43.6336V10.0185C49.7199 6.69242 47.0236 3.99609 43.6975 3.99609Z" fill="url(#paint1_linear_1899_14224)"/>
<path d="M39.6375 0H6.02241C2.69632 0 0 2.69632 0 6.02241V39.6375C0 42.9636 2.69632 45.6599 6.02241 45.6599H39.6375C42.9636 45.6599 45.6599 42.9636 45.6599 39.6375V6.02241C45.6599 2.69632 42.9636 0 39.6375 0Z" fill="url(#paint2_linear_1899_14224)"/>
<path d="M33.0734 21.8373L20.2456 34.6651C18.6246 36.2861 15.9998 36.2811 14.3838 34.6651L8.27109 28.5473C6.65508 26.9263 6.65508 24.3065 8.27109 22.6855C9.89212 21.0645 12.5119 21.0645 14.1329 22.6855L17.3198 25.8724L27.2116 15.9755C28.8276 14.3545 31.4523 14.3545 33.0734 15.9755C34.6944 17.5966 34.6944 20.2163 33.0734 21.8373Z" fill="white"/>
<path d="M37.3339 15.8592C39.6234 15.8592 41.4793 14.0032 41.4793 11.7138C41.4793 9.42433 39.6234 7.56836 37.3339 7.56836C35.0444 7.56836 33.1885 9.42433 33.1885 11.7138C33.1885 14.0032 35.0444 15.8592 37.3339 15.8592Z" fill="white"/>
<defs>
<linearGradient id="paint0_linear_1899_14224" x1="92.8457" y1="24.2723" x2="200" y2="24.2723" gradientUnits="userSpaceOnUse">
<stop stop-color="#3B82F6"/>
<stop offset="0.58" stop-color="#907A8F"/>
<stop offset="1" stop-color="#FF700A"/>
</linearGradient>
<linearGradient id="paint1_linear_1899_14224" x1="-0.411578" y1="13.1752" x2="55.7373" y2="41.2497" gradientUnits="userSpaceOnUse">
<stop stop-color="#1D4ED8"/>
<stop offset="0.12" stop-color="#204DD3"/>
<stop offset="0.26" stop-color="#2C4CC5"/>
<stop offset="0.41" stop-color="#3E4BAE"/>
<stop offset="0.56" stop-color="#59498E"/>
<stop offset="0.72" stop-color="#7A4664"/>
<stop offset="0.88" stop-color="#A34232"/>
<stop offset="1" stop-color="#C74007"/>
</linearGradient>
<linearGradient id="paint2_linear_1899_14224" x1="0.125467" y1="4.68744" x2="49.193" y2="43.8933" gradientUnits="userSpaceOnUse">
<stop stop-color="#3B82F6"/>
<stop offset="0.11" stop-color="#3E81F1"/>
<stop offset="0.24" stop-color="#4A80E3"/>
<stop offset="0.38" stop-color="#5D7ECC"/>
<stop offset="0.52" stop-color="#787CAC"/>
<stop offset="0.67" stop-color="#9A7982"/>
<stop offset="0.82" stop-color="#C5754F"/>
<stop offset="0.97" stop-color="#F57014"/>
<stop offset="1" stop-color="#FF700A"/>
</linearGradient>
</defs>
</svg>
