<svg width="399" height="99" viewBox="0 0 399 99" fill="none" xmlns="http://www.w3.org/2000/svg">
<path fill-rule="evenodd" clip-rule="evenodd" d="M346.631 82.3953H322.351C316.041 82.3953 311.377 80.9413 308.359 78.0332C305.341 75.1799 303.832 70.7629 303.832 64.7821V52.9302C303.832 46.9494 305.341 42.5323 308.359 39.6791C311.377 36.771 316.041 35.317 322.351 35.317H334.285V14H346.631V82.3953ZM334.285 71.6957V46.0166H323.091C320.787 46.0166 319.058 46.5653 317.906 47.6627C316.754 48.7601 316.178 50.6805 316.178 53.424V64.2883C316.178 67.0317 316.754 68.9522 317.906 70.0496C319.058 71.147 320.787 71.6957 323.091 71.6957H334.285ZM398.512 65.1099C398.512 71.0907 397.003 75.5077 393.985 78.361C390.967 81.2691 386.303 82.7231 379.993 82.7231H371.763C365.453 82.7231 360.789 81.2691 357.771 78.361C354.753 75.5077 353.244 71.0907 353.244 65.1099V52.5996C353.244 46.6187 354.753 42.2017 357.771 39.3485C360.789 36.4404 365.453 34.9863 371.763 34.9863H379.993C386.303 34.9863 390.967 36.4404 393.985 39.3485C397.003 42.2017 398.512 46.6187 398.512 52.5996V65.1099ZM379.252 72.0235C381.557 72.0235 383.285 71.4748 384.438 70.3774C385.59 69.28 386.166 67.3596 386.166 64.6161V53.0934C386.166 50.3499 385.59 48.4294 384.438 47.3321C383.285 46.2346 381.557 45.6859 379.252 45.6859H372.503C370.199 45.6859 368.471 46.2346 367.318 47.3321C366.166 48.4294 365.59 50.3499 365.59 53.0934V64.6161C365.59 67.3596 366.166 69.28 367.318 70.3774C368.471 71.4748 370.199 72.0235 372.503 72.0235H379.252ZM268.996 60.2131H298.688V51.3242H268.996V60.2131ZM264.646 65.1099C264.646 71.0907 263.137 75.5077 260.119 78.361C257.101 81.2691 252.437 82.7231 246.127 82.7231H237.897C231.586 82.7231 226.923 81.2691 223.905 78.361C220.887 75.5077 219.378 71.0907 219.378 65.1099V52.5996C219.378 46.6187 220.887 42.2017 223.905 39.3485C226.923 36.4404 231.586 34.9863 237.897 34.9863H246.127C252.437 34.9863 257.101 36.4404 260.119 39.3485C263.137 42.2017 264.646 46.6187 264.646 52.5996V65.1099ZM245.386 72.0235C247.691 72.0235 249.419 71.4748 250.571 70.3774C251.724 69.28 252.3 67.3596 252.3 64.6161V53.0934C252.3 50.3499 251.724 48.4294 250.571 47.3321C249.419 46.2346 247.691 45.6859 245.386 45.6859H238.637C236.333 45.6859 234.604 46.2346 233.452 47.3321C232.3 48.4294 231.724 50.3499 231.724 53.0934V64.6161C231.724 67.3596 232.3 69.28 233.452 70.3774C234.604 71.4748 236.333 72.0235 238.637 72.0235H245.386ZM209.527 82.3971H216.112V71.6975H210.268C207.964 71.6975 206.235 71.1488 205.083 70.0514C203.931 68.954 203.355 67.0336 203.355 64.2901V46.0184H216.112V35.3188H203.355V14.0639H191.009V35.3188H185V46.0184H191.009V64.7839C191.009 70.7647 192.518 75.1817 195.536 78.035C198.554 80.9431 203.217 82.3971 209.527 82.3971Z" fill="url(#paint0_linear_1899_14224)"/>
<path fill-rule="evenodd" clip-rule="evenodd" d="M160.679 79.0332C163.697 76.1799 165.206 71.7629 165.206 65.7821V35.9868H151.626V64.0537C151.626 66.7972 151.049 68.7176 149.897 69.815C148.745 70.9124 147.017 71.4611 144.712 71.4611H135V83.3953H146.687C152.997 83.3953 157.661 81.9413 160.679 79.0332ZM151.626 28.2004H165.206V15H151.626V28.2004Z" fill="#3B82F6"/>
<path d="M87.0698 7.96094H20.0898C13.4624 7.96094 8.08984 13.3335 8.08984 19.9609V86.9409C8.08984 93.5684 13.4624 98.9409 20.0898 98.9409H87.0698C93.6973 98.9409 99.0698 93.5684 99.0698 86.9409V19.9609C99.0698 13.3335 93.6973 7.96094 87.0698 7.96094Z" fill="url(#paint1_linear_1899_14224)"/>
<path d="M78.98 0H12C5.37258 0 0 5.37258 0 12V78.98C0 85.6074 5.37258 90.98 12 90.98H78.98C85.6074 90.98 90.98 85.6074 90.98 78.98V12C90.98 5.37258 85.6074 0 78.98 0Z" fill="url(#paint2_linear_1899_14224)"/>
<path d="M65.9004 43.5107L40.3404 69.0707C37.1104 72.3007 31.8804 72.2907 28.6604 69.0707L16.4804 56.8807C13.2604 53.6507 13.2604 48.4307 16.4804 45.2007C19.7104 41.9707 24.9304 41.9707 28.1604 45.2007L34.5104 51.5507L54.2204 31.8307C57.4404 28.6007 62.6704 28.6007 65.9004 31.8307C69.1304 35.0607 69.1304 40.2807 65.9004 43.5107Z" fill="white"/>
<path d="M74.3899 31.6001C78.9518 31.6001 82.6499 27.902 82.6499 23.3401C82.6499 18.7782 78.9518 15.0801 74.3899 15.0801C69.828 15.0801 66.1299 18.7782 66.1299 23.3401C66.1299 27.902 69.828 31.6001 74.3899 31.6001Z" fill="white"/>
<defs>
<linearGradient id="paint0_linear_1899_14224" x1="185" y1="48.3616" x2="398.512" y2="48.3616" gradientUnits="userSpaceOnUse">
<stop stop-color="#3B82F6"/>
<stop offset="0.58" stop-color="#907A8F"/>
<stop offset="1" stop-color="#FF700A"/>
</linearGradient>
<linearGradient id="paint1_linear_1899_14224" x1="-0.820156" y1="26.2509" x2="111.06" y2="82.1909" gradientUnits="userSpaceOnUse">
<stop stop-color="#1D4ED8"/>
<stop offset="0.12" stop-color="#204DD3"/>
<stop offset="0.26" stop-color="#2C4CC5"/>
<stop offset="0.41" stop-color="#3E4BAE"/>
<stop offset="0.56" stop-color="#59498E"/>
<stop offset="0.72" stop-color="#7A4664"/>
<stop offset="0.88" stop-color="#A34232"/>
<stop offset="1" stop-color="#C74007"/>
</linearGradient>
<linearGradient id="paint2_linear_1899_14224" x1="0.25" y1="9.34" x2="98.02" y2="87.46" gradientUnits="userSpaceOnUse">
<stop stop-color="#3B82F6"/>
<stop offset="0.11" stop-color="#3E81F1"/>
<stop offset="0.24" stop-color="#4A80E3"/>
<stop offset="0.38" stop-color="#5D7ECC"/>
<stop offset="0.52" stop-color="#787CAC"/>
<stop offset="0.67" stop-color="#9A7982"/>
<stop offset="0.82" stop-color="#C5754F"/>
<stop offset="0.97" stop-color="#F57014"/>
<stop offset="1" stop-color="#FF700A"/>
</linearGradient>
</defs>
</svg>
